<?xml version="1.0" encoding="UTF-8"?>
<svg width="128" height="128" viewBox="0 0 128 128" xmlns="http://www.w3.org/2000/svg">
  <!-- Gradient Definitions -->
  <defs>
    <linearGradient id="shieldGradient" x1="0%" y1="0%" x2="100%" y2="100%">
      <stop offset="0%" style="stop-color:#4299E1;stop-opacity:1" />
      <stop offset="50%" style="stop-color:#3182CE;stop-opacity:1" />
      <stop offset="100%" style="stop-color:#2B6CB0;stop-opacity:1" />
    </linearGradient>
    <linearGradient id="xGradient" x1="0%" y1="0%" x2="100%" y2="100%">
      <stop offset="0%" style="stop-color:#FFFFFF;stop-opacity:1" />
      <stop offset="100%" style="stop-color:#F7FAFC;stop-opacity:1" />
    </linearGradient>
    <filter id="shadow" x="-20%" y="-20%" width="140%" height="140%">
      <feDropShadow dx="0" dy="2" stdDeviation="4" flood-color="#000000" flood-opacity="0.1"/>
    </filter>
  </defs>

  <!-- Shield Background -->
  <path d="M64 8 L64 8 C64 8 48 12 32 16 C28 17.2 24 20 24 24 L24 64 C24 84 44 108 64 120 C84 108 104 84 104 64 L104 24 C104 20 100 17.2 96 16 C80 12 64 8 64 8 Z"
        fill="url(#shieldGradient)"
        filter="url(#shadow)"/>

  <!-- Shield Border -->
  <path d="M64 8 L64 8 C64 8 48 12 32 16 C28 17.2 24 20 24 24 L24 64 C24 84 44 108 64 120 C84 108 104 84 104 64 L104 24 C104 20 100 17.2 96 16 C80 12 64 8 64 8 Z"
        fill="none"
        stroke="#2A4A6B"
        stroke-width="1"
        opacity="0.3"/>

  <!-- X Letter -->
  <g transform="translate(64, 64)">
    <!-- Left diagonal -->
    <rect x="-18" y="-3" width="36" height="6" rx="3"
          fill="url(#xGradient)"
          transform="rotate(45)" />
    <!-- Right diagonal -->
    <rect x="-18" y="-3" width="36" height="6" rx="3"
          fill="url(#xGradient)"
          transform="rotate(-45)" />
  </g>

  <!-- Subtle highlight on shield -->
  <ellipse cx="64" cy="40" rx="30" ry="20"
           fill="url(#xGradient)"
           opacity="0.1"/>
</svg>
